<svg xmlns="http://www.w3.org/2000/svg" width="127" height="32" fill="none"><path fill="#e81d00" d="M34.3 15.9H41a6.8 6.8 0 1 1 0 13.6H41c-3.8 0-6.8-3-6.7-6.8zh-15a6.6 6.6 0 0 1-.1-13.3h2.7a10 10 0 0 1 9.7 6.3z"/><path fill="#e81d00" d="M6.9 15.9a6.8 6.8 0 1 0 0 13.6 6.8 6.8 0 0 0 0-13.6"/><path fill="#290500" d="M69 7.5V25h-3V7.5zM66.5 25v-2.8h9.8V25zm20-11.9h2.9V25h-2.7l-.2-1.6q-.7.9-1.6 1.4a5 5 0 0 1-2.3.5 4 4 0 0 1-3.2-1.3 5 5 0 0 1-1.1-3.4V13h3v6.4q0 1.7.6 2.5.6.6 1.8.7 1.4 0 2-.8.8-.9.8-2.5zM95.3 25h-2.9V13.1h2.7l.4 2.2-.4-.3q.4-.9 1.4-1.5a4 4 0 0 1 2.4-.7 4 4 0 0 1 3.9 3h-.5q.3-1.5 1.4-2.2t2.6-.8q2.3 0 3.3 1.2 1.2 1.2 1.2 3.2V25h-3v-7q0-1.2-.6-1.9t-1.7-.7l-1.2.3q-.6.4-.9 1t-.3 1.6V25h-3v-7q0-1.2-.6-1.9t-1.6-.7q-.8 0-1.3.4a2 2 0 0 0-1 .9q-.2.6-.3 1.6zm17.7-6q0-1.8.8-3.2t2.2-2.2 3.3-.8 3.3.8 2.2 2.2.8 3.2q0 2-.8 3.3-.8 1.5-2.2 2.2t-3.3.8q-1.8 0-3.3-.8t-2.2-2.2-.8-3.3m2.9 0q0 1.1.4 2t1.2 1.2 1.8.5 1.8-.5 1.2-1.3a4 4 0 0 0 .4-1.9 4 4 0 0 0-.4-1.8q-.5-.9-1.2-1.3t-1.8-.5-1.8.5q-.7.4-1.2 1.3a4 4 0 0 0-.4 1.8"/></svg>
